<?xml version="1.0" standalone="no"?><!DOCTYPE svg PUBLIC "-//W3C//DTD SVG 1.1//EN" "http://www.w3.org/Graphics/SVG/1.1/DTD/svg11.dtd"><svg t="1522740018032" class="icon" style="" viewBox="0 0 1024 1024" version="1.1" xmlns="http://www.w3.org/2000/svg" p-id="1706" xmlns:xlink="http://www.w3.org/1999/xlink" width="200" height="200"><defs><style type="text/css"></style></defs><path d="M342.2 900.4c0-7-5.7-12.6-12.6-12.6H124.9c-18.3 0-33.1-13.8-33.1-30.7V184.9c0-16.9 14.9-30.7 33.1-30.7h489c18.3 0 33.1 13.8 33.1 30.7v239.9c0 7.5 6.1 13.6 13.6 13.6s13.6-6.1 13.6-13.6V184.9c0-30.9-27.1-56-60.4-56h-489c-33.3 0-60.4 25.1-60.4 56V857c0 30.9 27.1 56 60.4 56h204.7c7 0 12.7-5.6 12.7-12.6z" p-id="1707" fill="#1296db"></path><path d="M363.1 592H163.4c-0.6 0-1.1-0.5-1.1-1.1v-9.5c0-0.6 0.5-1.1 1.1-1.1H363c0.6 0 1.1 0.5 1.1 1.1v9.5c0.1 0.6-0.4 1.1-1 1.1zM368.3 716.1H163.4c-0.6 0-1.1-0.5-1.1-1.1v-9.5c0-0.6 0.5-1.1 1.1-1.1h204.8c0.6 0 1.1 0.5 1.1 1.1v9.5c0.1 0.6-0.4 1.1-1 1.1zM365.6 343.7H163.4c-0.6 0-1.1-0.5-1.1-1.1v-9.5c0-0.6 0.5-1.1 1.1-1.1h202.2c0.6 0 1.1 0.5 1.1 1.1v9.5c0 0.6-0.4 1.1-1.1 1.1zM575.3 343.7H448.6c-0.6 0-1.1-0.5-1.1-1.1v-9.5c0-0.6 0.5-1.1 1.1-1.1h126.7c0.6 0 1.1 0.5 1.1 1.1v9.5c0 0.6-0.5 1.1-1.1 1.1zM416.8 343.7h-13.3c-0.6 0-1.1-0.5-1.1-1.1v-9.5c0-0.6 0.5-1.1 1.1-1.1h13.3c0.6 0 1.1 0.5 1.1 1.1v9.5c0 0.6-0.5 1.1-1.1 1.1zM409 467.8H163.4c-0.6 0-1.1-0.5-1.1-1.1v-9.5c0-0.6 0.5-1.1 1.1-1.1H409c0.6 0 1.1 0.5 1.1 1.1v9.5c0 0.6-0.5 1.1-1.1 1.1zM681.2 64.2H350.7c-7 0-12.6 5.7-12.6 12.6 0 7 5.7 12.6 12.6 12.6h330.5c18.3 0 33.1 13.8 33.1 30.7v180.5c0 7.1 5.1 13.6 12.2 14.3 8.2 0.8 15-5.6 15-13.6V120.2c0.1-30.9-27-56-60.3-56z" p-id="1708" fill="#1296db"></path><path d="M712.5 959.6h-44.8c-4.9 0-9-4-9-9v-44.8c0-2.4 0.9-4.7 2.6-6.3l125.3-125.3c3.5-3.5 9.2-3.5 12.7 0l26.9 26.9c3.5 3.5 3.5 9.2 0 12.7s-9.2 3.5-12.7 0L793 793.3 676.7 909.6v32.1h32.1l140.6-140.6c3.5-3.5 9.2-3.5 12.7 0s3.5 9.2 0 12.7L718.9 957c-1.7 1.7-4 2.6-6.4 2.6z m0 0" p-id="1709" fill="#1296db"></path><path d="M855.5 816.4c-2.3 0-4.6-0.9-6.3-2.6-3.5-3.5-3.5-9.2 0-12.7 8.8-8.8 8.8-23.1 0-31.8-8.8-8.8-23.1-8.8-31.8 0-3.5 3.5-9.2 3.5-12.7 0s-3.5-9.2 0-12.7c15.7-15.8 41.4-15.7 57.1 0 15.8 15.8 15.8 41.4 0 57.2-1.7 1.7-4 2.6-6.3 2.6z m0 0" p-id="1710" fill="#1296db"></path><path d="M671.7 732.9c-31.1 0-60.4-12.1-82.4-34.1-22-22-34.1-51.3-34.1-82.4 0-31.1 12.1-60.5 34.1-82.4 22-22 51.3-34.1 82.4-34.1 31.1 0 60.4 12.1 82.4 34.1 22 22 34.1 51.3 34.1 82.4 0 31.1-12.1 60.4-34.1 82.4-22 22-51.3 34.1-82.4 34.1z m0-211.2c-52.2 0-94.6 42.4-94.6 94.6 0 52.2 42.4 94.7 94.6 94.7 52.2 0 94.6-42.4 94.6-94.6 0.1-52.2-42.4-94.7-94.6-94.7z m0 0M450.5 945.2c0 6.1 4.9 11 11 11s11-4.9 11-11-4.9-11-11-11-11 4.9-11 11z m0 0" p-id="1711" fill="#1296db"></path><path d="M756 744c4.4-5 2.4-13-4-15.1-23.2-7.8-47.8-11.9-72.8-11.9-30.9 0-60.9 6-89.1 18-27.2 11.5-51.7 28-72.7 49s-37.5 45.5-49 72.7c-10.6 25.2-16.6 51.8-17.7 79.2-0.2 5.4 4.1 9.9 9.4 9.9h3.1c5 0 9.2-3.9 9.4-9C477.3 826.9 568.2 739 679.2 739c21.9 0 43.4 3.5 63.8 10.1 3 1 6.2 0.5 8.7-1.4l3-2.3c0.4-0.6 0.9-1 1.3-1.4z" p-id="1712" fill="#1296db"></path></svg>