<?xml version="1.0" standalone="no"?><!DOCTYPE svg PUBLIC "-//W3C//DTD SVG 1.1//EN" "http://www.w3.org/Graphics/SVG/1.1/DTD/svg11.dtd"><svg t="1522740093840" class="icon" style="" viewBox="0 0 1024 1024" version="1.1" xmlns="http://www.w3.org/2000/svg" p-id="2619" xmlns:xlink="http://www.w3.org/1999/xlink" width="200" height="200"><defs><style type="text/css"></style></defs><path d="M554.458 844.465c0 14.188 11.709 25.763 26.313 25.763h399.231c14.465 0 26.313-11.573 26.313-25.763s-11.709-25.763-26.313-25.763h-399.367c-14.465 0-26.176 11.573-26.176 25.763v0 0zM980.003 957.98h-589.063c-14.465 0-26.313 11.573-26.313 25.763s11.709 25.763 26.313 25.763h589.063c14.465 0 26.313-11.573 26.313-25.763s-11.847-25.763-26.313-25.763v0 0zM410.635 863.615c0.274-0.274 0.55-0.687 0.826-0.966 0.687-0.55 1.377-1.239 2.067-1.79l421.41-412.315c0 0 0 0 0 0s0 0 0 0l78.526-76.871c32.926-32.236 51.11-75.078 51.11-120.816s-18.183-88.442-51.11-120.816l-23.281-22.732c-32.926-32.236-76.734-50.005-123.433-50.005-46.564 0-90.37 17.77-123.433 50.005l-499.934 489.328c-0.55 0.55-1.239 1.377-1.79 1.929-0.274 0.274-0.687 0.55-1.104 0.826-1.104 1.104-1.929 2.205-2.894 3.308-0.138 0.138-0.138 0.274-0.274 0.274-0.138 0.138-0.274 0.274-0.274 0.412-59.238 72.048-111.862 330.628-117.787 360.935-1.654 8.545 1.239 17.497 7.714 23.557 4.956 4.547 11.435 7.027 18.046 7.027 2.067 0 4.133-0.274 6.199-0.687 29.758-7.163 285.716-69.707 356.387-128.254 1.104-0.687 2.067-1.377 3.033-2.341v0 0zM196.282 617.573l387.106-378.843 195.756 191.625-387.106 378.843-195.756-191.625zM680.513 143.679c23.006-22.595 53.728-34.991 86.238-34.991s63.231 12.4 86.238 34.991l23.281 22.869c23.006 22.595 35.682 52.485 35.682 84.446 0 31.823-12.675 61.855-35.682 84.446l-60.063 58.825-195.756-191.901 60.063-58.687zM163.357 658.072l187.632 183.635c-57.17 30.995-178.954 68.329-271.799 92.436 20.666-94.506 54-218.765 84.173-276.074v0 0z" p-id="2620" fill="#1296db"></path></svg>